<svg width="48" height="48" viewBox="0 0 48 48" fill="none" xmlns="http://www.w3.org/2000/svg">
<path fill-rule="evenodd" clip-rule="evenodd" d="M6.8125 23.9141C6.8125 14.3344 14.3178 7.24219 24 7.24219C33.6822 7.24219 41.1875 14.3344 41.1875 23.9141C41.1875 33.4937 33.6822 40.5859 24 40.5859C22.2609 40.5859 20.5924 40.3563 19.0247 39.9253C18.72 39.8414 18.3959 39.8651 18.1067 39.9926L14.6953 41.4986C13.8029 41.8925 12.7956 41.258 12.7657 40.2828L12.6721 37.2254C12.6605 36.8487 12.4911 36.4967 12.2103 36.2454C8.86606 33.2547 6.8125 28.9248 6.8125 23.9141ZM18.7278 20.7796L13.679 28.7897C13.1945 29.5584 14.1394 30.4246 14.8632 29.8753L20.2865 25.7594C20.6533 25.481 21.1603 25.4795 21.5287 25.7558L25.5444 28.7676C26.7493 29.6714 28.4691 29.354 29.2723 28.0798L34.3211 20.0697C34.8055 19.301 33.8606 18.4347 33.1368 18.984L27.7135 23.0999C27.3466 23.3784 26.8397 23.3798 26.4713 23.1035L22.4557 20.0918C21.2507 19.188 19.5309 19.5053 18.7278 20.7796Z" fill="black"/>
</svg>
